<svg width="388" height="396" viewBox="0 0 388 396" fill="none" xmlns="http://www.w3.org/2000/svg">
<path d="M122.284 3.36976C137.166 -4.30778 155.227 1.83434 165.913 14.7284C200.62 56.6086 256.973 74.6062 309.53 60.5958C325.711 56.2823 343.988 61.7456 351.666 76.6283L366.637 105.649C374.314 120.531 368.504 139.037 352.759 144.739C253.568 180.661 141.922 145.004 81.9146 58.2384C72.389 44.4652 78.3808 26.018 93.2635 18.3405L122.284 3.36976Z" fill="#E50120"/>
<path d="M385.517 232.928C384.723 249.673 370.359 262.256 353.832 265.066C300.152 274.193 256.343 314.039 242.183 366.616C237.823 382.803 223.938 395.914 207.193 395.121L174.541 393.574C157.796 392.781 144.661 378.482 147.598 361.977C166.104 258.004 252.898 179.061 358.155 170.467C374.863 169.102 387.857 183.53 387.063 200.275L385.517 232.928Z" fill="#005BAC"/>
<path d="M22.6484 81.6146C31.7695 67.4136 50.8492 63.1591 63.7609 74.0288C145.1 142.503 170.239 257.92 124.747 354.02C117.525 369.275 98.4048 373.341 84.2038 364.22L56.5127 346.434C42.3117 337.313 38.5715 318.454 44.4411 302.63C63.5055 251.232 50.8165 192.976 12.1028 154.163C0.183675 142.213 -4.25835 123.507 4.86276 109.306L22.6484 81.6146Z" fill="white"/>
</svg>
